<svg width="16" height="16" viewBox="0 0 16 16" fill="none" xmlns="http://www.w3.org/2000/svg">
<path d="M12.9765 9.39986C13.1737 9.67986 13.511 9.86652 13.8864 9.86652C14.5037 9.86652 15 9.38119 15 8.77765C15 8.1741 14.5037 7.68878 13.8864 7.68878C13.511 7.68878 13.1737 7.87544 12.9765 8.15544H12.4547C12.4547 7.17856 12.1365 6.2888 11.5638 5.54837L12.4165 4.7146C12.7728 4.77683 13.1355 4.67727 13.4092 4.42217C13.8355 3.99284 13.8355 3.30218 13.4092 2.86664C12.9701 2.44975 12.2638 2.44975 11.8183 2.86664C11.5574 3.13419 11.4556 3.48885 11.5192 3.83729L10.6666 4.67105C10.0811 4.24172 9.39389 3.95551 8.63665 3.84973V2.97863C8.923 2.78575 9.1139 2.45598 9.1139 2.08887C9.1139 1.48533 8.61756 1 8.00032 1C7.38307 1 6.88673 1.48533 6.88673 2.08887C6.88673 2.45598 7.07763 2.78575 7.36398 2.97863V3.84973C6.79128 3.93062 6.25676 4.11106 5.77314 4.38483L5.06681 3.39552C5.18771 3.07197 5.1559 2.69864 4.93954 2.39998C4.5832 1.90843 3.88959 1.78399 3.38689 2.13243C2.88418 2.47464 2.75691 3.15285 3.11326 3.6444C3.32962 3.94928 3.67324 4.11106 4.02322 4.11106L4.7741 5.15638C4.50047 5.42393 4.28412 5.72259 4.09958 6.05236C3.70505 5.90303 3.2278 5.97769 2.90963 6.2888C2.48329 6.72435 2.48329 7.40878 2.90963 7.84433C3.09417 8.01233 3.31689 8.11188 3.54597 8.15544C3.54597 8.49143 3.59051 8.81498 3.66051 9.12609L2.82691 9.34386C2.55965 9.12609 2.19058 9.03276 1.8215 9.12609C1.22971 9.28164 0.878454 9.87896 1.03881 10.4638C1.19789 11.0425 1.81514 11.3847 2.40693 11.2292C2.76964 11.1296 3.04327 10.8683 3.15781 10.5447L4.11867 10.2896C4.40502 10.7812 4.78682 11.2167 5.23226 11.5776L4.53229 12.822C4.18231 12.8718 3.86414 13.0647 3.6796 13.3945C3.38689 13.9233 3.59051 14.5829 4.1314 14.8691C4.67228 15.1553 5.3468 14.9562 5.63951 14.4273C5.81769 14.1038 5.81132 13.7305 5.65224 13.4256L6.33312 12.1998C6.84855 12.3989 7.40852 12.5109 8.00032 12.5109C8.0385 12.5109 8.07668 12.5109 8.11486 12.5109C8.03213 12.6727 8.00032 12.8594 8.00032 13.0585C8.05122 13.662 8.58574 14.11 9.19662 14.0664C9.80751 14.0229 10.272 13.494 10.2275 12.8967C10.202 12.5856 10.043 12.3118 9.81387 12.1314C10.1129 12.0007 10.3993 11.8327 10.6666 11.6398L12.1556 13.0958C12.0919 13.4442 12.1938 13.7989 12.4547 14.0664C12.9001 14.4833 13.6001 14.4833 14.0455 14.0664C14.4909 13.6496 14.4718 12.9465 14.0455 12.5109C13.7719 12.2558 13.4092 12.1563 13.0528 12.2185L11.5638 10.7625C11.8756 10.3581 12.1174 9.89763 12.2701 9.39986H12.9765ZM7.04581 8.15544C6.51765 8.15544 6.09131 7.73855 6.09131 7.22212C6.09131 6.70568 6.51765 6.2888 7.04581 6.2888C7.57397 6.2888 8.00032 6.70568 8.00032 7.22212C8.00032 7.73855 7.57397 8.15544 7.04581 8.15544ZM9.27299 10.0221C8.923 10.0221 8.63665 9.74208 8.63665 9.39986C8.63665 9.05764 8.923 8.77765 9.27299 8.77765C9.62297 8.77765 9.90932 9.05764 9.90932 9.39986C9.90932 9.74208 9.62297 10.0221 9.27299 10.0221Z" fill="#DEDDDA"/>
</svg>
