<?xml version="1.0" encoding="UTF-8" standalone="no"?>
<svg
   xmlns:dc="http://purl.org/dc/elements/1.1/"
   xmlns:cc="http://creativecommons.org/ns#"
   xmlns:rdf="http://www.w3.org/1999/02/22-rdf-syntax-ns#"
   xmlns:svg="http://www.w3.org/2000/svg"
   xmlns="http://www.w3.org/2000/svg"
   xmlns:sodipodi="http://sodipodi.sourceforge.net/DTD/sodipodi-0.dtd"
   xmlns:inkscape="http://www.inkscape.org/namespaces/inkscape"
   version="1.1"
   width="22.00099"
   height="22.500374"
   viewBox="0 0 22.00099 22.500374"
   id="svg4"
   sodipodi:docname="virus2.svg"
   inkscape:version="0.92.4 (5da689c313, 2019-01-14)">
  <metadata
     id="metadata10">
    <rdf:RDF>
      <cc:Work
         rdf:about="">
        <dc:format>image/svg+xml</dc:format>
        <dc:type
           rdf:resource="http://purl.org/dc/dcmitype/StillImage" />
        <dc:title />
      </cc:Work>
    </rdf:RDF>
  </metadata>
  <defs
     id="defs8" />
  <sodipodi:namedview
     pagecolor="#ffffff"
     bordercolor="#666666"
     borderopacity="1"
     objecttolerance="10"
     gridtolerance="10"
     guidetolerance="10"
     inkscape:pageopacity="0"
     inkscape:pageshadow="2"
     inkscape:window-width="1680"
     inkscape:window-height="990"
     id="namedview6"
     showgrid="false"
     inkscape:zoom="13.906433"
     inkscape:cx="-8.5744488"
     inkscape:cy="9.4097235"
     inkscape:window-x="0"
     inkscape:window-y="24"
     inkscape:window-maximized="1"
     inkscape:current-layer="svg4"
     showborder="true"
     inkscape:showpageshadow="true"
     borderlayer="false"
     showguides="false"
     fit-margin-top="0"
     fit-margin-left="0"
     fit-margin-right="0"
     fit-margin-bottom="0">
    <inkscape:grid
       type="xygrid"
       id="grid850"
       originx="-0.99901003"
       originy="-0.99962606" />
  </sodipodi:namedview>
  <path
     d="m 18.82099,13.5 c 0.31,0.45 0.84,0.75 1.43,0.75 0.97,0 1.75,-0.78 1.75,-1.75 0,-0.97 -0.78,-1.75 -1.75,-1.75 -0.59,0 -1.12,0.3 -1.43,0.75 h -0.82 c 0,-1.57 -0.5,-3 -1.4,-4.19 l 1.34,-1.34 c 0.56,0.1 1.13,-0.06 1.56,-0.47 0.67,-0.69 0.67,-1.8 0,-2.5 -0.69,-0.67 -1.8,-0.67 -2.5,0 -0.41,0.43 -0.57,1 -0.47,1.56 l -1.34,1.34 c -0.92,-0.69 -2,-1.15 -3.19,-1.32 v -1.4 c 0.45,-0.31 0.75,-0.84 0.75,-1.43 0,-0.97 -0.78,-1.75 -1.75,-1.75 -0.97,0 -1.75,0.78 -1.75,1.75 0,0.59 0.3,1.12 0.75,1.43 v 1.4 c -0.9,0.13 -1.74,0.42 -2.5,0.86 l -1.11,-1.59 c 0.19,-0.52 0.14,-1.12 -0.2,-1.6 -0.56,-0.79 -1.65,-0.99 -2.44,-0.43 -0.79,0.55 -0.99,1.64 -0.43,2.43 0.34,0.49 0.88,0.75 1.43,0.75 l 1.18,1.68 c -0.43,0.43 -0.77,0.91 -1.06,1.44 -0.62,-0.24 -1.37,-0.12 -1.87,0.38 -0.67,0.7 -0.67,1.8 0,2.5 0.29,0.27 0.64,0.43 1,0.5 v 0 c 0,0.54 0.07,1.06 0.18,1.56 l -1.31,0.35 c -0.42,-0.35 -1,-0.5 -1.58,-0.35 -0.93000002,0.25 -1.48200002,1.21 -1.23000002,2.15 0.25,0.93 1.22000002,1.48 2.15000002,1.23 0.57,-0.16 1,-0.58 1.18,-1.1 l 1.51,-0.41 c 0.45,0.79 1.05,1.49 1.75,2.07 l -1.1,2 c -0.55,0.08 -1.05,0.39 -1.34,0.92 -0.46,0.85 -0.14,1.91 0.71,2.37 0.85,0.46 1.91,0.14 2.37,-0.71 0.28,-0.52 0.27,-1.12 0.02,-1.61 l 1.07,-1.97 c 0.81,0.32 1.69,0.5 2.62,0.5 0.06,0 0.12,0 0.18,0 -0.13,0.26 -0.18,0.56 -0.18,0.88 0.08,0.97 0.92,1.69 1.88,1.62 0.96,-0.07 1.69,-0.92 1.62,-1.88 -0.04,-0.5 -0.29,-0.94 -0.65,-1.23 0.47,-0.21 0.92,-0.48 1.34,-0.79 l 2.34,2.34 c -0.1,0.56 0.06,1.13 0.47,1.56 0.7,0.67 1.8,0.67 2.5,0 0.7,-0.67 0.67,-1.8 0,-2.5 -0.43,-0.41 -1,-0.57 -1.56,-0.47 l -2.34,-2.34 c 0.49,-0.65 0.87,-1.39 1.11,-2.19 h 1.11 m -9.32,-2 c -0.83,0 -1.5,-0.67 -1.5,-1.5 0,-0.83 0.67,-1.5 1.5,-1.5 0.83,0 1.5,0.67 1.5,1.5 0,0.83 -0.67,1.5 -1.5,1.5 m 3.5,3 c -0.55,0 -1,-0.45 -1,-1 0,-0.55 0.45,-1 1,-1 0.55,0 1,0.45 1,1 0,0.55 -0.45,1 -1,1 z"
     id="path2"
     style="fill:#deddda;fill-opacity:1"
     inkscape:connector-curvature="0" />
</svg>
